<?xml version="1.0" encoding="UTF-8" standalone="no"?>
<!DOCTYPE svg PUBLIC "-//W3C//DTD SVG 1.1//EN"
 "http://www.w3.org/Graphics/SVG/1.1/DTD/svg11.dtd">
<!-- Generated by graphviz version 2.40.1 (20161225.0304)
 -->
<!-- Title: dependencies Pages: 1 -->
<svg width="952pt" height="211pt"
 viewBox="0.00 0.00 952.00 211.00" xmlns="http://www.w3.org/2000/svg" xmlns:xlink="http://www.w3.org/1999/xlink">
<g id="graph0" class="graph" transform="scale(1 1) rotate(0) translate(4 207)">
<title>dependencies</title>
<polygon fill="#ffffff" stroke="transparent" points="-4,4 -4,-207 948,-207 948,4 -4,4"/>
<text text-anchor="start" x="451.0091" y="-42.4" font-family="sans-serif" font-weight="bold" font-size="14.00" fill="#000000">Legend</text>
<polygon fill="#ffffb3" stroke="transparent" points="238,-10 238,-30 258,-30 258,-10 238,-10"/>
<text text-anchor="start" x="261.629" y="-15.4" font-family="sans-serif" font-size="14.00" fill="#000000"> &#160;Declarations</text>
<polygon fill="#8dd3c7" stroke="transparent" points="351,-10 351,-30 371,-30 371,-10 351,-10"/>
<text text-anchor="start" x="374.7251" y="-15.4" font-family="sans-serif" font-size="14.00" fill="#000000"> &#160;Module</text>
<polygon fill="#80b1d3" stroke="transparent" points="437,-10 437,-30 457,-30 457,-10 437,-10"/>
<text text-anchor="start" x="460.7812" y="-15.4" font-family="sans-serif" font-size="14.00" fill="#000000"> &#160;Bootstrap</text>
<polygon fill="#fdb462" stroke="transparent" points="534,-10 534,-30 554,-30 554,-10 534,-10"/>
<text text-anchor="start" x="557.6732" y="-15.4" font-family="sans-serif" font-size="14.00" fill="#000000"> &#160;Providers</text>
<polygon fill="#fb8072" stroke="transparent" points="630,-10 630,-30 650,-30 650,-10 630,-10"/>
<text text-anchor="start" x="653.7258" y="-15.4" font-family="sans-serif" font-size="14.00" fill="#000000"> &#160;Exports</text>
<g id="clust1" class="cluster">
<title>cluster_CruddleModule</title>
<polygon fill="none" stroke="#000000" stroke-dasharray="1,5" points="8,-70 8,-195 936,-195 936,-70 8,-70"/>
</g>
<g id="clust3" class="cluster">
<title>cluster_CruddleModule_imports</title>
<polygon fill="none" stroke="#000000" points="800,-78 800,-130 928,-130 928,-78 800,-78"/>
</g>
<g id="clust6" class="cluster">
<title>cluster_CruddleModule_providers</title>
<polygon fill="none" stroke="#000000" points="16,-78 16,-130 792,-130 792,-78 16,-78"/>
</g>
<!-- CommonModule -->
<g id="node1" class="node">
<title>CommonModule</title>
<polygon fill="#8dd3c7" stroke="#000000" points="919.6681,-122 916.6681,-126 895.6681,-126 892.6681,-122 808.3319,-122 808.3319,-86 919.6681,-86 919.6681,-122"/>
<text text-anchor="middle" x="864" y="-99.8" font-family="Times,serif" font-size="14.00" fill="#000000">CommonModule</text>
</g>
<!-- CruddleModule -->
<g id="node2" class="node">
<title>CruddleModule</title>
<polygon fill="#8dd3c7" stroke="#000000" points="552.1528,-187 549.1528,-191 528.1528,-191 525.1528,-187 447.8472,-187 447.8472,-151 552.1528,-151 552.1528,-187"/>
<text text-anchor="middle" x="500" y="-164.8" font-family="Times,serif" font-size="14.00" fill="#000000">CruddleModule</text>
</g>
<!-- CommonModule&#45;&gt;CruddleModule -->
<g id="edge1" class="edge">
<title>CommonModule&#45;&gt;CruddleModule</title>
<path fill="none" stroke="#000000" d="M864,-122.2843C864,-143.3211 864,-175 864,-175 864,-175 562.54,-175 562.54,-175"/>
<polygon fill="#000000" stroke="#000000" points="562.54,-171.5001 552.54,-175 562.5399,-178.5001 562.54,-171.5001"/>
</g>
<!-- AutoFormDescriber -->
<g id="node3" class="node">
<title>AutoFormDescriber</title>
<ellipse fill="#fdb462" stroke="#000000" cx="695" cy="-104" rx="88.6024" ry="18"/>
<text text-anchor="middle" x="695" y="-99.8" font-family="Times,serif" font-size="14.00" fill="#000000">AutoFormDescriber</text>
</g>
<!-- AutoFormDescriber&#45;&gt;CruddleModule -->
<g id="edge2" class="edge">
<title>AutoFormDescriber&#45;&gt;CruddleModule</title>
<path fill="none" stroke="#000000" d="M695,-122.0225C695,-139.3734 695,-163 695,-163 695,-163 562.2564,-163 562.2564,-163"/>
<polygon fill="#000000" stroke="#000000" points="562.2565,-159.5001 552.2564,-163 562.2564,-166.5001 562.2565,-159.5001"/>
</g>
<!-- AutoReadDescriber -->
<g id="node4" class="node">
<title>AutoReadDescriber</title>
<ellipse fill="#fdb462" stroke="#000000" cx="500" cy="-104" rx="87.9394" ry="18"/>
<text text-anchor="middle" x="500" y="-99.8" font-family="Times,serif" font-size="14.00" fill="#000000">AutoReadDescriber</text>
</g>
<!-- AutoReadDescriber&#45;&gt;CruddleModule -->
<g id="edge3" class="edge">
<title>AutoReadDescriber&#45;&gt;CruddleModule</title>
<path fill="none" stroke="#000000" d="M500,-122.1061C500,-122.1061 500,-140.991 500,-140.991"/>
<polygon fill="#000000" stroke="#000000" points="496.5001,-140.9909 500,-150.991 503.5001,-140.991 496.5001,-140.9909"/>
</g>
<!-- AutoDeleteDescriber -->
<g id="node5" class="node">
<title>AutoDeleteDescriber</title>
<ellipse fill="#fdb462" stroke="#000000" cx="301" cy="-104" rx="93.1523" ry="18"/>
<text text-anchor="middle" x="301" y="-99.8" font-family="Times,serif" font-size="14.00" fill="#000000">AutoDeleteDescriber</text>
</g>
<!-- AutoDeleteDescriber&#45;&gt;CruddleModule -->
<g id="edge4" class="edge">
<title>AutoDeleteDescriber&#45;&gt;CruddleModule</title>
<path fill="none" stroke="#000000" d="M301,-122.0225C301,-139.3734 301,-163 301,-163 301,-163 437.7151,-163 437.7151,-163"/>
<polygon fill="#000000" stroke="#000000" points="437.7151,-166.5001 447.7151,-163 437.7151,-159.5001 437.7151,-166.5001"/>
</g>
<!-- AutoListDescriber -->
<g id="node6" class="node">
<title>AutoListDescriber</title>
<ellipse fill="#fdb462" stroke="#000000" cx="107" cy="-104" rx="82.7994" ry="18"/>
<text text-anchor="middle" x="107" y="-99.8" font-family="Times,serif" font-size="14.00" fill="#000000">AutoListDescriber</text>
</g>
<!-- AutoListDescriber&#45;&gt;CruddleModule -->
<g id="edge5" class="edge">
<title>AutoListDescriber&#45;&gt;CruddleModule</title>
<path fill="none" stroke="#000000" d="M107,-122.2843C107,-143.3211 107,-175 107,-175 107,-175 437.8126,-175 437.8126,-175"/>
<polygon fill="#000000" stroke="#000000" points="437.8127,-178.5001 447.8126,-175 437.8126,-171.5001 437.8127,-178.5001"/>
</g>
</g>
</svg>
