<?xml version="1.0" encoding="UTF-8" standalone="no"?>
<!DOCTYPE svg PUBLIC "-//W3C//DTD SVG 1.1//EN"
 "http://www.w3.org/Graphics/SVG/1.1/DTD/svg11.dtd">
<!-- Generated by graphviz version 2.40.1 (20161225.0304)
 -->
<!-- Title: dependencies Pages: 1 -->
<svg width="689pt" height="211pt"
 viewBox="0.00 0.00 689.00 211.00" xmlns="http://www.w3.org/2000/svg" xmlns:xlink="http://www.w3.org/1999/xlink">
<g id="graph0" class="graph" transform="scale(1 1) rotate(0) translate(4 207)">
<title>dependencies</title>
<polygon fill="#ffffff" stroke="transparent" points="-4,4 -4,-207 685,-207 685,4 -4,4"/>
<text text-anchor="start" x="319.5091" y="-42.4" font-family="sans-serif" font-weight="bold" font-size="14.00" fill="#000000">Legend</text>
<polygon fill="#ffffb3" stroke="transparent" points="106.5,-10 106.5,-30 126.5,-30 126.5,-10 106.5,-10"/>
<text text-anchor="start" x="130.129" y="-15.4" font-family="sans-serif" font-size="14.00" fill="#000000"> &#160;Declarations</text>
<polygon fill="#8dd3c7" stroke="transparent" points="219.5,-10 219.5,-30 239.5,-30 239.5,-10 219.5,-10"/>
<text text-anchor="start" x="243.2251" y="-15.4" font-family="sans-serif" font-size="14.00" fill="#000000"> &#160;Module</text>
<polygon fill="#80b1d3" stroke="transparent" points="305.5,-10 305.5,-30 325.5,-30 325.5,-10 305.5,-10"/>
<text text-anchor="start" x="329.2812" y="-15.4" font-family="sans-serif" font-size="14.00" fill="#000000"> &#160;Bootstrap</text>
<polygon fill="#fdb462" stroke="transparent" points="402.5,-10 402.5,-30 422.5,-30 422.5,-10 402.5,-10"/>
<text text-anchor="start" x="426.1732" y="-15.4" font-family="sans-serif" font-size="14.00" fill="#000000"> &#160;Providers</text>
<polygon fill="#fb8072" stroke="transparent" points="498.5,-10 498.5,-30 518.5,-30 518.5,-10 498.5,-10"/>
<text text-anchor="start" x="522.2258" y="-15.4" font-family="sans-serif" font-size="14.00" fill="#000000"> &#160;Exports</text>
<g id="clust1" class="cluster">
<title>cluster_CruddleModule</title>
<polygon fill="none" stroke="#000000" stroke-dasharray="1,5" points="8,-70 8,-195 673,-195 673,-70 8,-70"/>
</g>
<g id="clust2" class="cluster">
<title>cluster_CruddleModule_declarations</title>
<polygon fill="none" stroke="#000000" points="152,-78 152,-130 665,-130 665,-78 152,-78"/>
</g>
<g id="clust7" class="cluster">
<title>cluster_CruddleModule_imports</title>
<polygon fill="none" stroke="#000000" points="16,-78 16,-130 144,-130 144,-78 16,-78"/>
</g>
<!-- DeleteComponent -->
<g id="node1" class="node">
<title>DeleteComponent</title>
<polygon fill="#ffffb3" stroke="#000000" points="656.8641,-122 539.1359,-122 539.1359,-86 656.8641,-86 656.8641,-122"/>
<text text-anchor="middle" x="598" y="-99.8" font-family="Times,serif" font-size="14.00" fill="#000000">DeleteComponent</text>
</g>
<!-- CruddleModule -->
<g id="node5" class="node">
<title>CruddleModule</title>
<polygon fill="#8dd3c7" stroke="#000000" points="392.1528,-187 389.1528,-191 368.1528,-191 365.1528,-187 287.8472,-187 287.8472,-151 392.1528,-151 392.1528,-187"/>
<text text-anchor="middle" x="340" y="-164.8" font-family="Times,serif" font-size="14.00" fill="#000000">CruddleModule</text>
</g>
<!-- DeleteComponent&#45;&gt;CruddleModule -->
<g id="edge1" class="edge">
<title>DeleteComponent&#45;&gt;CruddleModule</title>
<path fill="none" stroke="#000000" d="M598,-122.2843C598,-143.3211 598,-175 598,-175 598,-175 402.2101,-175 402.2101,-175"/>
<polygon fill="#000000" stroke="#000000" points="402.2102,-171.5001 392.2101,-175 402.2101,-178.5001 402.2102,-171.5001"/>
</g>
<!-- FormComponent -->
<g id="node2" class="node">
<title>FormComponent</title>
<polygon fill="#ffffb3" stroke="#000000" points="520.6667,-122 409.3333,-122 409.3333,-86 520.6667,-86 520.6667,-122"/>
<text text-anchor="middle" x="465" y="-99.8" font-family="Times,serif" font-size="14.00" fill="#000000">FormComponent</text>
</g>
<!-- FormComponent&#45;&gt;CruddleModule -->
<g id="edge2" class="edge">
<title>FormComponent&#45;&gt;CruddleModule</title>
<path fill="none" stroke="#000000" d="M465,-122.0225C465,-139.3734 465,-163 465,-163 465,-163 402.287,-163 402.287,-163"/>
<polygon fill="#000000" stroke="#000000" points="402.287,-159.5001 392.287,-163 402.2869,-166.5001 402.287,-159.5001"/>
</g>
<!-- ListComponent -->
<g id="node3" class="node">
<title>ListComponent</title>
<polygon fill="#ffffb3" stroke="#000000" points="391.6109,-122 288.3891,-122 288.3891,-86 391.6109,-86 391.6109,-122"/>
<text text-anchor="middle" x="340" y="-99.8" font-family="Times,serif" font-size="14.00" fill="#000000">ListComponent</text>
</g>
<!-- ListComponent&#45;&gt;CruddleModule -->
<g id="edge3" class="edge">
<title>ListComponent&#45;&gt;CruddleModule</title>
<path fill="none" stroke="#000000" d="M340,-122.1061C340,-122.1061 340,-140.991 340,-140.991"/>
<polygon fill="#000000" stroke="#000000" points="336.5001,-140.9909 340,-150.991 343.5001,-140.991 336.5001,-140.9909"/>
</g>
<!-- ReadComponent -->
<g id="node4" class="node">
<title>ReadComponent</title>
<polygon fill="#ffffb3" stroke="#000000" points="270.0982,-122 159.9018,-122 159.9018,-86 270.0982,-86 270.0982,-122"/>
<text text-anchor="middle" x="215" y="-99.8" font-family="Times,serif" font-size="14.00" fill="#000000">ReadComponent</text>
</g>
<!-- ReadComponent&#45;&gt;CruddleModule -->
<g id="edge4" class="edge">
<title>ReadComponent&#45;&gt;CruddleModule</title>
<path fill="none" stroke="#000000" d="M215,-122.0225C215,-139.3734 215,-163 215,-163 215,-163 277.713,-163 277.713,-163"/>
<polygon fill="#000000" stroke="#000000" points="277.7131,-166.5001 287.713,-163 277.713,-159.5001 277.7131,-166.5001"/>
</g>
<!-- CommonModule -->
<g id="node6" class="node">
<title>CommonModule</title>
<polygon fill="#8dd3c7" stroke="#000000" points="135.6681,-122 132.6681,-126 111.6681,-126 108.6681,-122 24.3319,-122 24.3319,-86 135.6681,-86 135.6681,-122"/>
<text text-anchor="middle" x="80" y="-99.8" font-family="Times,serif" font-size="14.00" fill="#000000">CommonModule</text>
</g>
<!-- CommonModule&#45;&gt;CruddleModule -->
<g id="edge5" class="edge">
<title>CommonModule&#45;&gt;CruddleModule</title>
<path fill="none" stroke="#000000" d="M80,-122.2843C80,-143.3211 80,-175 80,-175 80,-175 277.6979,-175 277.6979,-175"/>
<polygon fill="#000000" stroke="#000000" points="277.6979,-178.5001 287.6979,-175 277.6978,-171.5001 277.6979,-178.5001"/>
</g>
</g>
</svg>
