<?xml version="1.0" encoding="UTF-8" standalone="no"?>
<!DOCTYPE svg PUBLIC "-//W3C//DTD SVG 1.1//EN"
 "http://www.w3.org/Graphics/SVG/1.1/DTD/svg11.dtd">
<!-- Generated by graphviz version 2.40.1 (20161225.0304)
 -->
<!-- Title: dependencies Pages: 1 -->
<svg width="689pt" height="284pt"
 viewBox="0.00 0.00 689.00 284.00" xmlns="http://www.w3.org/2000/svg" xmlns:xlink="http://www.w3.org/1999/xlink">
<g id="graph0" class="graph" transform="scale(1 1) rotate(0) translate(4 280)">
<title>dependencies</title>
<polygon fill="#ffffff" stroke="transparent" points="-4,4 -4,-280 685,-280 685,4 -4,4"/>
<text text-anchor="start" x="319.5091" y="-42.4" font-family="sans-serif" font-weight="bold" font-size="14.00" fill="#000000">Legend</text>
<polygon fill="#ffffb3" stroke="transparent" points="106.5,-10 106.5,-30 126.5,-30 126.5,-10 106.5,-10"/>
<text text-anchor="start" x="130.129" y="-15.4" font-family="sans-serif" font-size="14.00" fill="#000000"> &#160;Declarations</text>
<polygon fill="#8dd3c7" stroke="transparent" points="219.5,-10 219.5,-30 239.5,-30 239.5,-10 219.5,-10"/>
<text text-anchor="start" x="243.2251" y="-15.4" font-family="sans-serif" font-size="14.00" fill="#000000"> &#160;Module</text>
<polygon fill="#80b1d3" stroke="transparent" points="305.5,-10 305.5,-30 325.5,-30 325.5,-10 305.5,-10"/>
<text text-anchor="start" x="329.2812" y="-15.4" font-family="sans-serif" font-size="14.00" fill="#000000"> &#160;Bootstrap</text>
<polygon fill="#fdb462" stroke="transparent" points="402.5,-10 402.5,-30 422.5,-30 422.5,-10 402.5,-10"/>
<text text-anchor="start" x="426.1732" y="-15.4" font-family="sans-serif" font-size="14.00" fill="#000000"> &#160;Providers</text>
<polygon fill="#fb8072" stroke="transparent" points="498.5,-10 498.5,-30 518.5,-30 518.5,-10 498.5,-10"/>
<text text-anchor="start" x="522.2258" y="-15.4" font-family="sans-serif" font-size="14.00" fill="#000000"> &#160;Exports</text>
<g id="clust1" class="cluster">
<title>cluster_CruddleModule</title>
<polygon fill="none" stroke="#000000" stroke-dasharray="1,5" points="8,-70 8,-268 673,-268 673,-70 8,-70"/>
</g>
<g id="clust2" class="cluster">
<title>cluster_CruddleModule_declarations</title>
<polygon fill="none" stroke="#000000" points="152,-78 152,-130 665,-130 665,-78 152,-78"/>
</g>
<g id="clust7" class="cluster">
<title>cluster_CruddleModule_imports</title>
<polygon fill="none" stroke="#000000" points="16,-78 16,-130 144,-130 144,-78 16,-78"/>
</g>
<g id="clust8" class="cluster">
<title>cluster_CruddleModule_exports</title>
<polygon fill="none" stroke="#000000" points="78,-208 78,-260 605,-260 605,-208 78,-208"/>
</g>
<!-- DeleteComponent -->
<g id="node1" class="node">
<title>DeleteComponent</title>
<polygon fill="#ffffb3" stroke="#000000" points="656.8641,-122 539.1359,-122 539.1359,-86 656.8641,-86 656.8641,-122"/>
<text text-anchor="middle" x="598" y="-99.8" font-family="Times,serif" font-size="14.00" fill="#000000">DeleteComponent</text>
</g>
<!-- CruddleModule -->
<g id="node5" class="node">
<title>CruddleModule</title>
<polygon fill="#8dd3c7" stroke="#000000" points="392.1528,-187 389.1528,-191 368.1528,-191 365.1528,-187 287.8472,-187 287.8472,-151 392.1528,-151 392.1528,-187"/>
<text text-anchor="middle" x="340" y="-164.8" font-family="Times,serif" font-size="14.00" fill="#000000">CruddleModule</text>
</g>
<!-- DeleteComponent&#45;&gt;CruddleModule -->
<g id="edge1" class="edge">
<title>DeleteComponent&#45;&gt;CruddleModule</title>
<path fill="none" stroke="#000000" d="M567.875,-122.1061C567.875,-141.3391 567.875,-169 567.875,-169 567.875,-169 402.2791,-169 402.2791,-169"/>
<polygon fill="#000000" stroke="#000000" points="402.2792,-165.5001 392.2791,-169 402.2791,-172.5001 402.2792,-165.5001"/>
</g>
<!-- FormComponent -->
<g id="node2" class="node">
<title>FormComponent</title>
<polygon fill="#ffffb3" stroke="#000000" points="520.6667,-122 409.3333,-122 409.3333,-86 520.6667,-86 520.6667,-122"/>
<text text-anchor="middle" x="465" y="-99.8" font-family="Times,serif" font-size="14.00" fill="#000000">FormComponent</text>
</g>
<!-- FormComponent&#45;&gt;CruddleModule -->
<g id="edge2" class="edge">
<title>FormComponent&#45;&gt;CruddleModule</title>
<path fill="none" stroke="#000000" d="M433.375,-122.027C433.375,-138.3976 433.375,-160 433.375,-160 433.375,-160 402.4194,-160 402.4194,-160"/>
<polygon fill="#000000" stroke="#000000" points="402.4194,-156.5001 392.4194,-160 402.4193,-163.5001 402.4194,-156.5001"/>
</g>
<!-- ListComponent -->
<g id="node3" class="node">
<title>ListComponent</title>
<polygon fill="#ffffb3" stroke="#000000" points="391.6109,-122 288.3891,-122 288.3891,-86 391.6109,-86 391.6109,-122"/>
<text text-anchor="middle" x="340" y="-99.8" font-family="Times,serif" font-size="14.00" fill="#000000">ListComponent</text>
</g>
<!-- ListComponent&#45;&gt;CruddleModule -->
<g id="edge3" class="edge">
<title>ListComponent&#45;&gt;CruddleModule</title>
<path fill="none" stroke="#000000" d="M340,-122.1061C340,-122.1061 340,-140.991 340,-140.991"/>
<polygon fill="#000000" stroke="#000000" points="336.5001,-140.9909 340,-150.991 343.5001,-140.991 336.5001,-140.9909"/>
</g>
<!-- ReadComponent -->
<g id="node4" class="node">
<title>ReadComponent</title>
<polygon fill="#ffffb3" stroke="#000000" points="270.0982,-122 159.9018,-122 159.9018,-86 270.0982,-86 270.0982,-122"/>
<text text-anchor="middle" x="215" y="-99.8" font-family="Times,serif" font-size="14.00" fill="#000000">ReadComponent</text>
</g>
<!-- ReadComponent&#45;&gt;CruddleModule -->
<g id="edge4" class="edge">
<title>ReadComponent&#45;&gt;CruddleModule</title>
<path fill="none" stroke="#000000" d="M243.8719,-122.027C243.8719,-138.3976 243.8719,-160 243.8719,-160 243.8719,-160 277.7164,-160 277.7164,-160"/>
<polygon fill="#000000" stroke="#000000" points="277.7164,-163.5001 287.7164,-160 277.7163,-156.5001 277.7164,-163.5001"/>
</g>
<!-- DeleteComponent  -->
<g id="node7" class="node">
<title>DeleteComponent </title>
<polygon fill="#fb8072" stroke="#000000" points="596.8645,-252 475.1355,-252 475.1355,-216 596.8645,-216 596.8645,-252"/>
<text text-anchor="middle" x="536" y="-229.8" font-family="Times,serif" font-size="14.00" fill="#000000">DeleteComponent </text>
</g>
<!-- CruddleModule&#45;&gt;DeleteComponent  -->
<g id="edge6" class="edge">
<title>CruddleModule&#45;&gt;DeleteComponent </title>
<path fill="none" stroke="#000000" stroke-dasharray="5,2" d="M392.1979,-178C438.2418,-178 498.0756,-178 498.0756,-178 498.0756,-178 498.0756,-205.973 498.0756,-205.973"/>
<polygon fill="#000000" stroke="#000000" points="494.5756,-205.973 498.0756,-215.973 501.5756,-205.973 494.5756,-205.973"/>
</g>
<!-- FormComponent  -->
<g id="node8" class="node">
<title>FormComponent </title>
<polygon fill="#fb8072" stroke="#000000" points="457.6663,-252 342.3337,-252 342.3337,-216 457.6663,-216 457.6663,-252"/>
<text text-anchor="middle" x="400" y="-229.8" font-family="Times,serif" font-size="14.00" fill="#000000">FormComponent </text>
</g>
<!-- CruddleModule&#45;&gt;FormComponent  -->
<g id="edge7" class="edge">
<title>CruddleModule&#45;&gt;FormComponent </title>
<path fill="none" stroke="#000000" stroke-dasharray="5,2" d="M367.3715,-187.1061C367.3715,-187.1061 367.3715,-205.991 367.3715,-205.991"/>
<polygon fill="#000000" stroke="#000000" points="363.8716,-205.9909 367.3715,-215.991 370.8716,-205.991 363.8716,-205.9909"/>
</g>
<!-- ListComponent  -->
<g id="node9" class="node">
<title>ListComponent </title>
<polygon fill="#fb8072" stroke="#000000" points="324.1115,-252 217.8885,-252 217.8885,-216 324.1115,-216 324.1115,-252"/>
<text text-anchor="middle" x="271" y="-229.8" font-family="Times,serif" font-size="14.00" fill="#000000">ListComponent </text>
</g>
<!-- CruddleModule&#45;&gt;ListComponent  -->
<g id="edge8" class="edge">
<title>CruddleModule&#45;&gt;ListComponent </title>
<path fill="none" stroke="#000000" stroke-dasharray="5,2" d="M305.9897,-187.1061C305.9897,-187.1061 305.9897,-205.991 305.9897,-205.991"/>
<polygon fill="#000000" stroke="#000000" points="302.4897,-205.9909 305.9897,-215.991 309.4897,-205.991 302.4897,-205.9909"/>
</g>
<!-- ReadComponent  -->
<g id="node10" class="node">
<title>ReadComponent </title>
<polygon fill="#fb8072" stroke="#000000" points="199.5989,-252 86.4011,-252 86.4011,-216 199.5989,-216 199.5989,-252"/>
<text text-anchor="middle" x="143" y="-229.8" font-family="Times,serif" font-size="14.00" fill="#000000">ReadComponent </text>
</g>
<!-- CruddleModule&#45;&gt;ReadComponent  -->
<g id="edge9" class="edge">
<title>CruddleModule&#45;&gt;ReadComponent </title>
<path fill="none" stroke="#000000" stroke-dasharray="5,2" d="M287.5691,-178C240.8699,-178 179.875,-178 179.875,-178 179.875,-178 179.875,-205.973 179.875,-205.973"/>
<polygon fill="#000000" stroke="#000000" points="176.3751,-205.973 179.875,-215.973 183.3751,-205.973 176.3751,-205.973"/>
</g>
<!-- CommonModule -->
<g id="node6" class="node">
<title>CommonModule</title>
<polygon fill="#8dd3c7" stroke="#000000" points="135.6681,-122 132.6681,-126 111.6681,-126 108.6681,-122 24.3319,-122 24.3319,-86 135.6681,-86 135.6681,-122"/>
<text text-anchor="middle" x="80" y="-99.8" font-family="Times,serif" font-size="14.00" fill="#000000">CommonModule</text>
</g>
<!-- CommonModule&#45;&gt;CruddleModule -->
<g id="edge5" class="edge">
<title>CommonModule&#45;&gt;CruddleModule</title>
<path fill="none" stroke="#000000" d="M111.0174,-122.1061C111.0174,-141.3391 111.0174,-169 111.0174,-169 111.0174,-169 277.7538,-169 277.7538,-169"/>
<polygon fill="#000000" stroke="#000000" points="277.7538,-172.5001 287.7538,-169 277.7537,-165.5001 277.7538,-172.5001"/>
</g>
</g>
</svg>
